<mxfile host="65bd71144e">
    <diagram id="9PqEW8VnqEi3CXaNUH7V" name="Page-1">
        <mxGraphModel dx="788" dy="747" grid="1" gridSize="10" guides="1" tooltips="1" connect="1" arrows="1" fold="1" page="1" pageScale="1" pageWidth="850" pageHeight="1100" math="0" shadow="0">
            <root>
                <mxCell id="0"/>
                <mxCell id="1" parent="0"/>
                <mxCell id="2" value="set" style="swimlane;" vertex="1" parent="1">
                    <mxGeometry x="90" y="80" width="200" height="200" as="geometry"/>
                </mxCell>
                <mxCell id="3" value="ID" style="text;html=1;strokeColor=none;fillColor=none;align=center;verticalAlign=middle;whiteSpace=wrap;rounded=0;" vertex="1" parent="2">
                    <mxGeometry y="30" width="200" height="30" as="geometry"/>
                </mxCell>
                <mxCell id="4" value="catalog number" style="text;html=1;strokeColor=none;fillColor=none;align=center;verticalAlign=middle;whiteSpace=wrap;rounded=0;" vertex="1" parent="2">
                    <mxGeometry y="60" width="200" height="30" as="geometry"/>
                </mxCell>
                <mxCell id="5" value="start price" style="text;html=1;strokeColor=none;fillColor=none;align=center;verticalAlign=middle;whiteSpace=wrap;rounded=0;" vertex="1" parent="2">
                    <mxGeometry y="90" width="200" height="30" as="geometry"/>
                </mxCell>
                <mxCell id="6" value="highest bid" style="text;html=1;strokeColor=none;fillColor=none;align=center;verticalAlign=middle;whiteSpace=wrap;rounded=0;" vertex="1" parent="2">
                    <mxGeometry y="120" width="200" height="30" as="geometry"/>
                </mxCell>
                <mxCell id="8" value="remaining auction time" style="text;html=1;strokeColor=none;fillColor=none;align=center;verticalAlign=middle;whiteSpace=wrap;rounded=0;" vertex="1" parent="2">
                    <mxGeometry y="150" width="200" height="30" as="geometry"/>
                </mxCell>
                <mxCell id="23" value="fk_set" style="text;html=1;strokeColor=none;fillColor=none;align=center;verticalAlign=middle;whiteSpace=wrap;rounded=0;" vertex="1" parent="2">
                    <mxGeometry y="170" width="200" height="30" as="geometry"/>
                </mxCell>
                <mxCell id="9" value="product" style="swimlane;" vertex="1" parent="1">
                    <mxGeometry x="80" y="600" width="200" height="230" as="geometry"/>
                </mxCell>
                <mxCell id="10" value="id" style="text;html=1;strokeColor=none;fillColor=none;align=center;verticalAlign=middle;whiteSpace=wrap;rounded=0;" vertex="1" parent="9">
                    <mxGeometry y="40" width="200" height="30" as="geometry"/>
                </mxCell>
                <mxCell id="11" value="code" style="text;html=1;strokeColor=none;fillColor=none;align=center;verticalAlign=middle;whiteSpace=wrap;rounded=0;" vertex="1" parent="9">
                    <mxGeometry y="70" width="200" height="30" as="geometry"/>
                </mxCell>
                <mxCell id="12" value="name" style="text;html=1;strokeColor=none;fillColor=none;align=center;verticalAlign=middle;whiteSpace=wrap;rounded=0;" vertex="1" parent="9">
                    <mxGeometry y="100" width="200" height="30" as="geometry"/>
                </mxCell>
                <mxCell id="13" value="description" style="text;html=1;strokeColor=none;fillColor=none;align=center;verticalAlign=middle;whiteSpace=wrap;rounded=0;" vertex="1" parent="9">
                    <mxGeometry y="130" width="200" height="30" as="geometry"/>
                </mxCell>
                <mxCell id="14" value="photo" style="text;html=1;strokeColor=none;fillColor=none;align=center;verticalAlign=middle;whiteSpace=wrap;rounded=0;" vertex="1" parent="9">
                    <mxGeometry y="170" width="200" height="30" as="geometry"/>
                </mxCell>
                <mxCell id="15" value="customer" style="swimlane;" vertex="1" parent="1">
                    <mxGeometry x="550" y="360" width="200" height="230" as="geometry"/>
                </mxCell>
                <mxCell id="16" value="id" style="text;html=1;strokeColor=none;fillColor=none;align=center;verticalAlign=middle;whiteSpace=wrap;rounded=0;" vertex="1" parent="15">
                    <mxGeometry y="30" width="200" height="30" as="geometry"/>
                </mxCell>
                <mxCell id="18" value="amount bid" style="text;html=1;strokeColor=none;fillColor=none;align=center;verticalAlign=middle;whiteSpace=wrap;rounded=0;" vertex="1" parent="15">
                    <mxGeometry y="60" width="200" height="30" as="geometry"/>
                </mxCell>
                <mxCell id="19" value="date and time" style="text;html=1;strokeColor=none;fillColor=none;align=center;verticalAlign=middle;whiteSpace=wrap;rounded=0;" vertex="1" parent="15">
                    <mxGeometry y="90" width="200" height="30" as="geometry"/>
                </mxCell>
                <mxCell id="20" value="user name" style="text;html=1;strokeColor=none;fillColor=none;align=center;verticalAlign=middle;whiteSpace=wrap;rounded=0;" vertex="1" parent="15">
                    <mxGeometry y="120" width="200" height="30" as="geometry"/>
                </mxCell>
                <mxCell id="21" value="password" style="text;html=1;strokeColor=none;fillColor=none;align=center;verticalAlign=middle;whiteSpace=wrap;rounded=0;" vertex="1" parent="15">
                    <mxGeometry y="140" width="200" height="30" as="geometry"/>
                </mxCell>
                <mxCell id="22" value="email address" style="text;html=1;strokeColor=none;fillColor=none;align=center;verticalAlign=middle;whiteSpace=wrap;rounded=0;" vertex="1" parent="15">
                    <mxGeometry y="170" width="200" height="30" as="geometry"/>
                </mxCell>
                <mxCell id="29" value="fk_customer" style="text;html=1;strokeColor=none;fillColor=none;align=center;verticalAlign=middle;whiteSpace=wrap;rounded=0;" vertex="1" parent="15">
                    <mxGeometry y="190" width="200" height="30" as="geometry"/>
                </mxCell>
                <mxCell id="25" value="products" style="swimlane;" vertex="1" parent="1">
                    <mxGeometry x="80" y="390" width="200" height="90" as="geometry"/>
                </mxCell>
                <mxCell id="31" value="fk_set" style="text;html=1;strokeColor=none;fillColor=none;align=center;verticalAlign=middle;whiteSpace=wrap;rounded=0;" vertex="1" parent="25">
                    <mxGeometry y="20" width="200" height="30" as="geometry"/>
                </mxCell>
                <mxCell id="26" value="customers" style="swimlane;startSize=23;" vertex="1" parent="1">
                    <mxGeometry x="325" y="600" width="205" height="120" as="geometry"/>
                </mxCell>
                <mxCell id="33" value="fk_set" style="text;html=1;strokeColor=none;fillColor=none;align=center;verticalAlign=middle;whiteSpace=wrap;rounded=0;" vertex="1" parent="26">
                    <mxGeometry y="30" width="200" height="30" as="geometry"/>
                </mxCell>
                <mxCell id="32" value="fk_product" style="text;html=1;strokeColor=none;fillColor=none;align=center;verticalAlign=middle;whiteSpace=wrap;rounded=0;" vertex="1" parent="26">
                    <mxGeometry x="5" y="60" width="200" height="30" as="geometry"/>
                </mxCell>
                <mxCell id="28" value="fk_product" style="text;html=1;strokeColor=none;fillColor=none;align=center;verticalAlign=middle;whiteSpace=wrap;rounded=0;" vertex="1" parent="1">
                    <mxGeometry x="80" y="800" width="200" height="30" as="geometry"/>
                </mxCell>
                <mxCell id="34" value="fk_product" style="text;html=1;strokeColor=none;fillColor=none;align=center;verticalAlign=middle;whiteSpace=wrap;rounded=0;" vertex="1" parent="1">
                    <mxGeometry x="90" y="450" width="200" height="30" as="geometry"/>
                </mxCell>
            </root>
        </mxGraphModel>
    </diagram>
</mxfile>